# xmcd
#
# Track frame offsets:
#	150
#	13065
#	24490
#	37605
#	50342
#	63515
#	76482
#	89112
#	101477
#	113515
#	125312
#	138390
#	150175
#	161412
#	173052
#	185477
#	197927
#	208727
#	217620
#	227697
#	238730
#	250897
#	261457
#	273450
#	284090
#	296120
#	308507
#
# Disc length: 4251 seconds
#
# Revision: 3
# Processed by: cddbd v1.5.2PL0 Copyright (c) Steve Scherf et al.
# Submitted via: audiograbber 1.83.01
#
DISCID=7c10991b
DTITLE=Sheb Wooley - That's My Pa - disc 1
DYEAR=1998
DGENRE=Country
TTITLE0=Sheb Wooley - I Can't Live Without You
TTITLE1=Sheb Wooley - Oklahoma Honky Tonk Girl
TTITLE2=Sheb Wooley - Lazy Mazy
TTITLE3=Sheb Wooley - Wooley's Polka
TTITLE4=Sheb Wooley - Peeping Through The Keyhole (Watching Jole Blon)
TTITLE5=Sheb Wooley - Time Won't Heal An Achin' Heart
TTITLE6=Sheb Wooley - Too Long With The Wrong Woman
TTITLE7=Sheb Wooley - Your Papa Ain't Steppin' Anymore
TTITLE8=Sheb Wooley - Cherokee Waltz
TTITLE9=Sheb Wooley - Texas Rose
TTITLE10=Sheb Wooley - Spanish Darling
TTITLE11=Sheb Wooley - Freight Train Cinders In My Eyes
TTITLE12=Sheb Wooley - A Heart Bound In Chains
TTITLE13=Sheb Wooley - Indian Maiden - Romance
TTITLE14=Sheb Wooley - Jole Quadroon
TTITLE15=Sheb Wooley - Rover Scoot Over
TTITLE16=Sheb Wooley - The Sun Is Going Down Upon My Heart
TTITLE17=Sheb Wooley - That Mean Feeling
TTITLE18=Sheb Wooley - You're The Cats Meow
TTITLE19=Sheb Wooley - (Now You're) Changing Your Name
TTITLE20=Sheb Wooley - Wha' Hoppen To Me, Baby
TTITLE21=Sheb Wooley - Mule Boogie
TTITLE22=Sheb Wooley - Over The Barrel
TTITLE23=Sheb Wooley - Country Kisses
TTITLE24=Sheb Wooley - Hoot Owl Boogie
TTITLE25=Sheb Wooley - Aircastles
TTITLE26=Sheb Wooley - Boogie Woogie Waltz (instrumental) 1985
EXTD=
EXTT0=
EXTT1=
EXTT2=
EXTT3=
EXTT4=
EXTT5=
EXTT6=
EXTT7=
EXTT8=
EXTT9=
EXTT10=
EXTT11=
EXTT12=
EXTT13=
EXTT14=
EXTT15=
EXTT16=
EXTT17=
EXTT18=
EXTT19=
EXTT20=
EXTT21=
EXTT22=
EXTT23=
EXTT24=
EXTT25=
EXTT26=
PLAYORDER=
